<svg xmlns="http://www.w3.org/2000/svg" viewBox="0 0 512 512" style="height: 512px; width: 512px;"><defs><filter id="shadow-1" height="300%" width="300%" x="-100%" y="-100%"><feFlood flood-color="rgba(114, 113, 113, 1)" result="flood"></feFlood><feComposite in="flood" in2="SourceGraphic" operator="atop" result="composite"></feComposite><feGaussianBlur in="composite" stdDeviation="15" result="blur"></feGaussianBlur><feOffset dx="0" dy="0" result="offset"></feOffset><feComposite in="SourceGraphic" in2="offset" operator="over"></feComposite></filter><filter id="shadow-2" height="300%" width="300%" x="-100%" y="-100%"><feFlood flood-color="rgba(77, 76, 76, 1)" result="flood"></feFlood><feComposite in="flood" in2="SourceGraphic" operator="atop" result="composite"></feComposite><feGaussianBlur in="composite" stdDeviation="15" result="blur"></feGaussianBlur><feOffset dx="0" dy="0" result="offset"></feOffset><feComposite in="SourceGraphic" in2="offset" operator="over"></feComposite></filter><filter id="shadow-3" height="300%" width="300%" x="-100%" y="-100%"><feFlood flood-color="rgba(87, 85, 85, 1)" result="flood"></feFlood><feComposite in="flood" in2="SourceGraphic" operator="atop" result="composite"></feComposite><feGaussianBlur in="composite" stdDeviation="15" result="blur"></feGaussianBlur><feOffset dx="0" dy="0" result="offset"></feOffset><feComposite in="SourceGraphic" in2="offset" operator="over"></feComposite></filter><radialGradient id="willdabeast-chain-mail-gradient-0"><stop offset="0%" stop-color="#000" stop-opacity="1"></stop><stop offset="100%" stop-color="#000" stop-opacity="1"></stop></radialGradient></defs><circle cx="256" cy="256" r="256" fill="url(#pattern)"></circle><svg><defs><linearGradient id="a" x1="240" y1="16" x2="240" y2="496" gradientUnits="userSpaceOnUse"><stop offset="0" stop-color="#7d787a"></stop><stop offset="1" stop-color="#423e44"></stop></linearGradient></defs><path fill="url(#a)" fill-rule="evenodd" d="M0 0h512v512H0z"></path><path d="M8 0l30.63 37.93 259.87-9.84 178.4 11.95L504 0H204.7l-10.2 8.779L159.4 0z" overflow="visible" fill="#fff" fill-opacity=".269" fill-rule="evenodd"></path><path d="M2.809 511.6l42.841-40.7L184 468.5l27.4 26.6 10.5-23.8 250.1 7 6.7 18.3 29.3 15.7z" overflow="visible" fill-opacity=".24" fill-rule="evenodd"></path><path d="M511.7 16.15l-39.1 50.39-2 324.26 10.1 19.9-7.3 53.5 20.9 9.1 18 23.8L512 215l-15.5-28.8 15.4-11.4z" overflow="visible" fill-opacity=".19" fill-rule="evenodd"></path><path d="M0 15.18L35.12 61.1l-8.61 93.8 10.19 13.9-5.13 97.4-14.85 18.9 12.62 23.3 7.5 83.9v57.4L-.743 496.5z" overflow="visible" fill="#fff" fill-opacity=".099" fill-rule="evenodd"></path><path d="M51.56 56.62L43.16 141l10.74 22.4-8.99 103.7-10.46 17.5 7.05 21.8 10.61 116.8 21.9 32.6 109.29.5 34.2-12.4 6.5 12.5 235.3 2.3 6.9-33.9-13.7-12.6 6.2-20.4-6-331.94-150-14.62-29.5 1.34-1.4 25.57-60.4-22.77z" overflow="visible" fill="#797677" fill-opacity=".434" fill-rule="evenodd"></path></svg><g class="" transform="translate(0,0)" style=""><path d="M174.688 61.094L144.125 78.75 43.53 136.813l-10.124 5.843-10.718 6.188-5.47 3.156 65.407 113.375 2.03-1.156 4.97-2.876 9.188-5.313V256l55.874-32.438-8.625 195.938-.156 3.22-1.125 24.03h222.126l-.125-2.688-.31-7.343-.783-17.22-8.593-195.53 55.22 32.06-.033.033 13.283 7.656.843.5 2.063 1.186L493.874 152l-5.47-3.156-10.717-6.188-94.438-54.5-16.28-9.406-22.408-12.938-8.156-4.687c-11.456 23.492-43.573 40.594-81.156 40.594-37.564 0-69.075-17.103-80.53-40.595l-.032-.03zm-17.313 31.562c38.33 35.412 91.103 46.482 137.03 34.563l-7.717 14.25 13.125 24.25 13.125-24.25-9.22-17.032c18.97-6.366 36.472-16.805 50.876-31.25l113.75 65.656-46.72 81L392 222.624l12.156-22.468-13.125-24.25-13.124 24.25L389.186 221l-19.31-11.22-33.563-19.874.5 8.5-12.938-23.906-13.156 24.25L323.874 223l12.97-23.97 1.467 24.626h.032l2.187 49.406-10.655-19.656-13.125 24.25L326.688 296h-60.22l9-16.625-13.124-24.25-13.125 24.25 9 16.625h-88l3.405-77.25h-.03l1.155-28.875-33.53 19.875-51.75 30.063-46.72-80.97 114.625-66.187zm4.563 16.78l-13.125 24.25 13.125 24.25 13.125-24.25-13.125-24.25zm270.093 39.626l-13.124 24.25 13.125 24.25 13.126-24.25-13.125-24.25zM128.69 166.72l-13.125 24.25 13.124 24.25 13.125-24.25-13.125-24.25zm113.843 38.186l-13.124 24.25 13.125 24.25 13.126-24.25-13.125-24.25zm55.876 19.813l-13.125 24.25 13.126 24.25 13.125-24.25-13.124-24.25zm-99.72 9.186l-13.124 24.25 13.125 24.25 13.157-24.25-13.156-24.25zm142.22 47.625l.625 14.47h-8.467l7.843-14.47zM169.47 312.97h172.81l.876 19.967H168.594l.875-19.968zm-1.626 36.936H207l-10.844 19.97 13.156 24.25 13.125-24.25-10.812-19.97h120.563l-11.563 21.375 13.125 24.25L345 374.75l1.97 44.75h-53.44l8.095-14.97-13.125-24.25-13.125 24.25 8.094 14.97H164.78l3.064-69.594zm167.47 0h8.592l.75 17.28-9.344-17.28z" fill="#fff" fill-opacity="1" stroke="#ccc" stroke-opacity="1" stroke-width="8" filter="url(#shadow-1)"></path></g></svg>