<svg xmlns="http://www.w3.org/2000/svg" viewBox="0 0 512 512" style="height: 512px; width: 512px;"><defs><filter id="shadow-1" height="300%" width="300%" x="-100%" y="-100%"><feFlood flood-color="rgba(114, 113, 113, 1)" result="flood"></feFlood><feComposite in="flood" in2="SourceGraphic" operator="atop" result="composite"></feComposite><feGaussianBlur in="composite" stdDeviation="15" result="blur"></feGaussianBlur><feOffset dx="0" dy="0" result="offset"></feOffset><feComposite in="SourceGraphic" in2="offset" operator="over"></feComposite></filter><filter id="shadow-2" height="300%" width="300%" x="-100%" y="-100%"><feFlood flood-color="rgba(77, 76, 76, 1)" result="flood"></feFlood><feComposite in="flood" in2="SourceGraphic" operator="atop" result="composite"></feComposite><feGaussianBlur in="composite" stdDeviation="15" result="blur"></feGaussianBlur><feOffset dx="0" dy="0" result="offset"></feOffset><feComposite in="SourceGraphic" in2="offset" operator="over"></feComposite></filter><filter id="shadow-3" height="300%" width="300%" x="-100%" y="-100%"><feFlood flood-color="rgba(87, 85, 85, 1)" result="flood"></feFlood><feComposite in="flood" in2="SourceGraphic" operator="atop" result="composite"></feComposite><feGaussianBlur in="composite" stdDeviation="15" result="blur"></feGaussianBlur><feOffset dx="0" dy="0" result="offset"></feOffset><feComposite in="SourceGraphic" in2="offset" operator="over"></feComposite></filter><radialGradient id="lorc-gears-gradient-0"><stop offset="0%" stop-color="#000" stop-opacity="1"></stop><stop offset="100%" stop-color="#000" stop-opacity="1"></stop></radialGradient></defs><circle cx="256" cy="256" r="256" fill="url(#pattern)"></circle><svg><defs><linearGradient id="a" x1="240" y1="16" x2="240" y2="496" gradientUnits="userSpaceOnUse"><stop offset="0" stop-color="#7d787a"></stop><stop offset="1" stop-color="#423e44"></stop></linearGradient></defs><path fill="url(#a)" fill-rule="evenodd" d="M0 0h512v512H0z"></path><path d="M8 0l30.63 37.93 259.87-9.84 178.4 11.95L504 0H204.7l-10.2 8.779L159.4 0z" overflow="visible" fill="#fff" fill-opacity=".269" fill-rule="evenodd"></path><path d="M2.809 511.6l42.841-40.7L184 468.5l27.4 26.6 10.5-23.8 250.1 7 6.7 18.3 29.3 15.7z" overflow="visible" fill-opacity=".24" fill-rule="evenodd"></path><path d="M511.7 16.15l-39.1 50.39-2 324.26 10.1 19.9-7.3 53.5 20.9 9.1 18 23.8L512 215l-15.5-28.8 15.4-11.4z" overflow="visible" fill-opacity=".19" fill-rule="evenodd"></path><path d="M0 15.18L35.12 61.1l-8.61 93.8 10.19 13.9-5.13 97.4-14.85 18.9 12.62 23.3 7.5 83.9v57.4L-.743 496.5z" overflow="visible" fill="#fff" fill-opacity=".099" fill-rule="evenodd"></path><path d="M51.56 56.62L43.16 141l10.74 22.4-8.99 103.7-10.46 17.5 7.05 21.8 10.61 116.8 21.9 32.6 109.29.5 34.2-12.4 6.5 12.5 235.3 2.3 6.9-33.9-13.7-12.6 6.2-20.4-6-331.94-150-14.62-29.5 1.34-1.4 25.57-60.4-22.77z" overflow="visible" fill="#797677" fill-opacity=".434" fill-rule="evenodd"></path></svg><g class="" transform="translate(0,0)" style=""><path d="M179.625 22.313L163.22 58.937c-3.258-.384-6.498-.604-9.72-.624-10.577-.066-20.857 1.808-30.47 5.28L99.78 31.032 55.75 63.188l24.063 33.657c-7.21 10.412-12.3 22.5-14.5 35.75l-42.72 4.687 5.345 54.25 45.468-5c5.082 10.2 12.078 19.372 20.594 26.97l-19.406 43.375 49.375 22.094 19.5-43.564c11.656 1.242 23.08.128 33.75-3l28.124 38.53 31.72-23.186 11.655 20.156C234.014 279.138 220.873 292.3 209.624 307l-49.22-28.344-25.718 46.72 48.125 27.937c-7.068 16.934-11.967 34.975-14.343 53.812H112.5v53.72h56.22c1.66 12.053 4.372 23.753 8.03 35.06h169.312c-23.915-10.758-40.562-34.788-40.562-62.717 0-37.964 30.754-68.75 68.72-68.75 37.963 0 68.75 30.786 68.75 68.75 0 27.93-16.67 51.96-40.595 62.718h91.5V200.375l-11.688-6.406L454.594 242c-16.842-7.204-34.808-12.234-53.594-14.72v-55.53h-53.72v55.47c-18.303 2.377-35.83 7.183-52.31 14.03l-27.126-47.28-36 20.25-9.25-12.97c7.08-9.223 12.43-19.93 15.5-31.72l44.437-4.843-5.342-54.25-42.25 4.157c-4.92-12.618-12.648-23.953-22.563-33.094L229 44.406l-49.375-22.093zm-27.344 84.25c23.3-.24 42.94 17.827 44.376 41.343 1.48 24.275-17.004 45.144-41.28 46.625-24.278 1.483-45.145-16.974-46.626-41.25-1.48-24.274 16.973-45.142 41.25-46.624.76-.046 1.53-.086 2.28-.094z" fill="#fff" fill-opacity="1" stroke="#ccc" stroke-opacity="1" stroke-width="8" filter="url(#shadow-1)"></path></g></svg>